<svg xmlns="http://www.w3.org/2000/svg" viewBox="0 0 100 100" role="img" aria-label="flow.planner">
  <defs>
    <radialGradient id="bell" cx="40%" cy="30%" r="65%">
      <stop offset="0%" stop-color="#c4b5fd"/>
      <stop offset="100%" stop-color="#5b21b6"/>
    </radialGradient>
  </defs>
  <path d="M 12 52 Q 12 28 50 24 Q 88 28 88 52 Q 88 64 50 67 Q 12 64 12 52 Z" fill="url(#bell)"/>
  <g stroke-linecap="round" fill="none" opacity="0.8">
    <path d="M 28 64 Q 24 75 27 85" stroke="#a78bfa" stroke-width="2.5"/>
    <path d="M 38 66 Q 36 78 39 87" stroke="#8b5cf6" stroke-width="2.5"/>
    <path d="M 50 67 Q 50 79 50 88" stroke="#a78bfa" stroke-width="3"/>
    <path d="M 62 66 Q 64 78 61 87" stroke="#8b5cf6" stroke-width="2.5"/>
    <path d="M 72 64 Q 76 75 73 85" stroke="#a78bfa" stroke-width="2.5"/>
  </g>
  <circle cx="38" cy="44" r="4" fill="#e0e7ff" opacity="0.85"/>
  <circle cx="52" cy="38" r="3" fill="#ddd6fe" opacity="0.75"/>
  <circle cx="65" cy="44" r="4" fill="#e0e7ff" opacity="0.85"/>
</svg>
